<svg xmlns="http://www.w3.org/2000/svg" width="800" height="560" id="schematicSVG" viewBox="0 0 800 560" style=""><defs id="pilotLightDefs"><radialGradient id="blueGradient" cx="50%" cy="50%" r="75%"><stop offset="0%" stop-color="rgb(0,0,255)" stop-opacity="1"/><stop offset="100%" stop-color="rgb(0,0,0)" stop-opacity="1"/></radialGradient><radialGradient id="greenGradient" cx="50%" cy="50%" r="75%"><stop offset="0%" stop-color="rgb(0,191,0)" stop-opacity="1"/><stop offset="100%" stop-color="rgb(0,0,0)" stop-opacity="1"/></radialGradient><radialGradient id="greyGradient" cx="50%" cy="50%" r="75%"><stop offset="0%" stop-color="rgb(255,255,255)" stop-opacity="1"/><stop offset="100%" stop-color="rgb(0,0,0)" stop-opacity="1"/></radialGradient><radialGradient id="redGradient" cx="50%" cy="50%" r="75%"><stop offset="0%" stop-color="rgb(255,0,0)" stop-opacity="1"/><stop offset="100%" stop-color="rgb(0,0,0)" stop-opacity="1"/></radialGradient><radialGradient id="violetGradient" cx="50%" cy="50%" r="75%"><stop offset="0%" stop-color="rgb(219,0,219)" stop-opacity="1"/><stop offset="100%" stop-color="rgb(0,0,0)" stop-opacity="1"/></radialGradient><radialGradient id="aquaGradient" cx="50%" cy="50%" r="75%"><stop offset="0%" stop-color="aqua" stop-opacity="1"/><stop offset="100%" stop-color="rgb(0,0,0)" stop-opacity="1"/></radialGradient></defs><defs id="arrowDefs"/><defs id="defsPattern"/><defs id="defsGradient"/><defs id="defsShadow"><filter id="drop-shadow" height="150%" width="150%"><feGaussianBlur in="SourceAlpha" stdDeviation="5" result="blur"/><feOffset in="blur" dx="5" dy="5" result="offsetBlur"/><feMerge><feMergeNode in="offsetBlur"/><feMergeNode in="SourceGraphic"/></feMerge></filter></defs><g text-rendering="geometricPrecision" id="domAddProcessG" class="noselect"><g title="ISA Blower" parentid="Blowers15152703416051" nativewidth="154" nativeheight="152" myscale=".5" transform="matrix(0.5 0 0 0.5 282 125)" id="process1515270344693"><svg xmlns:xlink="http://www.w3.org/1999/xlink" xmlns="http://www.w3.org/2000/svg" title="ISA Blower" class="Blowers" height="152" width="154" viewBox="0 0 154 152.017" nativewidth="154" nativeheight="152" overflow="visible" id="Blowers15152703416051" myscale="1.0">
    <defs/>
    <g transform="translate(1.02,1.02)">
        <path transform="translate(-0.01,0)" id="shape1" fill="#d0d3da" stroke="#dcdcdd" d="M72.4,0C72.4,0,43.3,-1.6,19.4,23.1C-1.2,46,0,72.2,0,72.2C0,72.2,-0.8,107.6,27.4,131.6C55.6,155.5,96.7,149.3,96.7,149.3L147.1,149.3L147.1,110.5L129.7,110.5C129.7,110.5,126.2,109.6,128,107.2C128,107.2,148.4,83.5,139.3,49C139.3,49,129.6,1.9,72.4,0z"/>
        <path transform="translate(14.86,114.7)" id="shape2" fill="#ffffff" fill-opacity="0.23" d="M13.3,.9C18.9,3.8,16.7,3.7,28.4,10C35.6,13.9,43.9,16.5,69.5,18.7C70.3,18.7,132.3,18.7,132.3,18.7L132.3,29.5L81.4,29.5C81.4,29.5,54.6,34.5,28.6,21.8C2.7,9,0,1.4,0,1.4C0,1.4,8.7,-1.5,13.3,.9z"/>
        <path transform="translate(80.4,5.38)" id="shape3" fill="#ffffff" fill-opacity="0.37" d="M.4,8.3C.4,8.3,-2.5,-0.8,7.9,0C7.9,0,57.2,7,58.1,62.6C58.1,62.6,58.5,85,44.5,102.5C44.5,102.5,42.8,98.3,34.9,95.8C34.9,95.8,33.7,94.9,34.9,92.5C34.9,92.5,46.4,81.6,45.3,61C44.2,40.4,35,16,.4,8.3z"/>
        <path transform="translate(102.12,107.02)" id="shape4" fill="#a3aebd" d="M25.8,0C25.8,0,16.2,7.6,0,14.4C0,14.4,14.7,11.9,27.6,3.3C27.6,3.3,24,1.9,25.8,0z"/>
        <path transform="translate(101.53,110.35)" id="shape5" fill="#ffffff" fill-opacity="0.24" d="M45.5,-0L45.5,11.5L0,11.5C0,11.5,18.1,7.2,28.2,-0L45.5,-0z"/>
        <path transform="translate(18.17,13.11)" id="shape6" fill="#c0c4cd" d="M0,53.8C0,24.1,24.1,0,53.9,0C83.7,0,107.8,24.1,107.8,53.8C107.8,83.4,83.7,107.5,53.9,107.5C24.1,107.5,0,83.4,0,53.8z"/>
        <path transform="translate(4.44,6.48)" id="shape7" fill="#ffffff" fill-opacity="0.11" d="M48.5,0C48.5,0,54.7,-0.2,53.5,8.3C53.5,8.3,17.5,18.7,13.7,55.6C11.5,76.9,24.8,93.9,28.7,97.5C28.2,100.5,22.2,103.6,18,103.2C10.7,101.8,8.7,98.5,8.7,98.5C8.7,98.5,-5.8,72.8,2.6,45.6C2.6,45.6,13.6,10.5,48.5,0z"/>
        <path transform="translate(34.39,29.38)" id="shape8" fill="#8593a7" d="M0,37.5C0,16.8,16.9,0,37.7,0C58.5,0,75.4,16.8,75.4,37.5C75.4,58.2,58.5,75,37.7,75C16.9,75,0,58.2,0,37.5z"/>
        <path transform="translate(41.07,35.95)" id="shape9" fill="#414c5b" d="M0,30.9C0,13.8,13.9,0,31,0C48.1,0,62,13.8,62,30.9C62,48,48.1,61.9,31,61.9C13.9,61.9,0,48,0,30.9z"/>
        <path transform="translate(103.13,9.91)" id="shape10" fill="#ffffff" fill-opacity="0.95" d="M.2,2.4C.2,2.4,24.4,12.2,32.3,45.1C32.3,45.1,34.8,46,31.8,34.4C29.3,24.9,18.9,9.1,5.1,1C5.1,1,-1.1,-2.1,.2,2.4z"/>
        <path transform="translate(113.17,119.08)" id="shape11" fill="#ffffff" fill-opacity="0.93" d="M1.8,2.1L30.6,2.3C30.6,2.3,31.5,1,29.5,.5C26.2,-0.2,13.4,.1,6.3,-0C-0.5,-0.1,-1.5,2.1,1.8,2.1z"/>
        <path transform="translate(0.36,5.02)" id="shape12" fill="#b5beca" d="M47.7,0C47.7,0,53.7,-0.2,38,7.8C38,7.8,11.3,22.9,5,55.6C1.6,73.5,5.1,81.1,7.8,90.2C10,96.1,11.4,100.5,10.1,100.9C7.8,101.7,6.7,98.7,6.7,98.7C6.7,98.7,-5.5,73.5,3,46.3C3,46.3,12.8,10.6,47.7,0z"/>
        <path transform="translate(14.2,116.1)" id="shape13" fill="#b5beca" d="M132.9,33L82.5,33C82.5,33,49.1,36.4,27.7,24.7C27.7,24.7,9.5,16.1,0,0C0,0,13.3,15.3,38.2,23.9C57.7,30.7,82.1,28.1,82.1,28.1L132.9,28.1L132.9,33z"/>
        <path transform="translate(145.27,110.33)" id="shape14" fill="#a3aebd" d="M1.8,0L0,0L0,38.7L1.8,38.7L1.8,0z"/>
        <path transform="translate(146.84,108.92)" id="shape15" fill="#c0c4cd" stroke="#c0c4cd" stroke-width="0.25" d="M1.1,0L4,0C4.6,0,5.1,.5,5.1,1.1L5.1,40C5.1,40.6,4.6,41.1,4,41.1L1.1,41.1C.5,41.1,0,40.6,0,40L0,1.1C0,.5,.5,0,1.1,0z"/>
        <path transform="translate(150.24,109.69)" id="shape16" fill="#ffffff" d="M.5,0C.8,0,1,.2,1,.5L1,38.9C1,39.1,.8,39.4,.5,39.4C.2,39.4,-0,39.1,-0,38.9L-0,.5C-0,.2,.2,0,.5,0z"/>
        <path transform="translate(18.13,30.84)" id="shape17" fill="#ffffff" fill-opacity="0.76" d="M13.6,.3C13.6,.3,-10.4,24.4,5.4,59.8C5.4,59.8,7.6,62,6.3,54.7C6.3,54.7,-5,30.2,13.8,3.4C13.8,3.4,17.2,-1.2,13.6,.3z"/>
        <path transform="translate(91.46,5.14)" id="shape18" fill="#ffffff" fill-opacity="0.93" d="M9.4,6.1C9.4,6.1,9.5,3.9,11.5,3.6C11.5,3.6,5.9,.3,1.6,-0C1.3,-0,-1.1,.6,.6,3.2C.6,3.2,5.7,3.6,9.4,6.1z"/>
        <path transform="translate(71.16,35.86)" id="shape19" fill="#a7acb9" stroke="#a7acb9" stroke-width="0.25" d="M0,0L3,0L3,62L0,62L0,0z"/>
        <path transform="translate(51,40.99)" id="shape20" fill="#a7acb9" stroke="#a7acb9" stroke-width="0.25" d="M0,0L3,0L3,52.4L0,52.4L0,0z"/>
        <path transform="translate(89.93,40.43)" id="shape21" fill="#a7acb9" stroke="#a7acb9" stroke-width="0.25" d="M0,0L3,0L3,52.1L0,52.1L0,0z"/>
        <path transform="translate(51.5,47.68)" id="shape22" fill="#a7acb9" stroke="#a7acb9" stroke-width="0.25" d="M0,3L0,0L41,0L41,3L0,3z"/>
        <path transform="translate(38.93,65.38)" id="shape23" fill="#a7acb9" stroke="#a7acb9" stroke-width="0.25" d="M0,3L0,0L66.1,0L66.1,3L0,3z"/>
        <path transform="translate(51.31,83.08)" id="shape24" fill="#a7acb9" stroke="#a7acb9" stroke-width="0.25" d="M0,3L0,0L41,0L41,3L0,3z"/>
        <path transform="translate(37.06,31.95)" id="shape25" fill="#d0d3da" stroke="#d0d3da" d="M0,34.9C0,15.6,15.7,0,35,0C54.4,0,70.1,15.6,70.1,34.9C70.1,54.2,54.4,69.9,35,69.9C15.7,69.9,0,54.2,0,34.9zM35,4C35,4,22.1,3.5,12.7,13.4C3.3,23.3,4,34.9,4,34.9C4,34.9,3.7,47.1,12.7,56.5C21.7,65.9,35,65.9,35,65.9C35,65.9,47.1,67,57,56.7C66.9,46.4,66,34.9,66,34.9C66,34.9,67,23.5,57.4,13.4C47.7,3.3,35,4,35,4z"/>
    </g>
</svg><rect width="154" height="152" stroke="none" stroke-width="2" fill="white" fill-opacity="0" style="cursor: default;"/></g></g><g id="topG"><g shape-rendering="geometricPrecision" id="domAddPathG"/><g shape-rendering="geometricPrecision" id="domAddElemG" text-rendering="geometricPrecision"/></g><g shape-rendering="geometricPrecision" id="domAddHmiG"/><g shape-rendering="geometricPrecision" id="domAddSymbolG"/><g text-rendering="geometricPrecision" id="domAddIconG" class="noselect"/><g text-rendering="geometricPrecision" id="domAddComponentG" class="noselect"><g xmlns="http://www.w3.org/2000/svg" category="ISA/P&amp;ID" nativewidth="104" nativeheight="79" myscale="1.0" transform="matrix(1 0 0 1 125 128.87)" id="component0" parentid="componentISA1">
		<path d="M0,30.4L85,54.3L85,-10.9L0,13L0,30.4z" fill="#ffffff"/>
		<path stroke="#000000" d="M42.5,26.1C43.1,33.3,45.2,37.9,47.3,36.8C49.4,35.7,51,29.3,51,21.7C51,14.2,49.4,7.8,47.3,6.7C45.2,5.6,43.1,10.2,42.5,17.4M0,30.4L85,54.3L85,-10.9L0,13L0,30.4zM85,21.7L102,21.7" fill="none"/>
		<rect fill="white" fill-opacity="0" style="cursor: default;" x="0" y="-10.899999618530273" width="102" height="65.19999694824219"/></g></g><rect id="processRect" stroke="none" fill="#7df9ff" fill-opacity=".4"/><rect id="componentRect" stroke="none" fill="#c9a0dc" fill-opacity=".4"/></svg>
