<svg xmlns="http://www.w3.org/2000/svg" xmlns:v="http://vecta.io" xmlns:xlink="http://www.w3.org/1999/xlink"  viewBox="0 0 64 64" stroke="#000" stroke-linecap="round" stroke-linejoin="round" fill="#fff" fill-rule="evenodd" font-family="Roboto" font-size="14px" text-anchor="middle"><g id="jozc71qvkm" transform="translate(1.5 16.5)"><title>Stored Data</title><path d="M 15.2 30 C 7.2 30 0 23.5714285714285 0 15 C 0 6.4285714285715 7.2 0 15.2 0 L 60 0 Q 46 15 60 30 Z" fill="#ddccff" stroke="#838383"/><g transform="translate(15.200000000000001 0)" class="Text.cls"><rect x="0" y="0" width="38.399999141693115" height="30" fill="none" stroke="none"/><text fill="#000" fill-opacity="1" class="" stroke="none"><tspan x="48" y="72.92000305175782"/></text></g></g><symbol id="eWprDo4QuP0_f8xBBIQwcs.sym" overflow="visible" v:tags="flow chart, data, stored data"><title>Stored Data</title><desc>Any data that is stored</desc><g id="jsphe5s0e9x" transform="translate(0 0)" class="" v:size="151,71,0.5,0.5" v:formula="{&quot;txtSize.width&quot;:&quot;this.widthU() - 38 - 16&quot;,&quot;txtMove.x&quot;:&quot;38&quot;,&quot;txtSize.height&quot;:&quot;var size = this.text() === '' ? 65 : this.textHeight();\n(size &lt; 65 ? 65 : size) + 5;&quot;,&quot;size.height&quot;:&quot;var txt_h = Math.ceil(this.txtHeightU() / 10) * 10, \n L_GAP = 38, \n OFFSET_X = 20, \n OFFSET_Y = txt_h * (2 / 7),\n width = this.widthU();\n\nthis.pathList([{type: 'M', x: L_GAP, y: txt_h}, {\n type: 'C',\n x: 0,\n y: txt_h * 0.5,\n x1: L_GAP - OFFSET_X,\n y1: txt_h,\n x2: 0,\n y2: (txt_h * 0.5) + OFFSET_Y\n}, {type: 'C', x: L_GAP, y: 0, x1: 0, y1: (txt_h * 0.5) - OFFSET_Y, x2: L_GAP - OFFSET_X, y2: 0}, {type: 'L', x: width, y: 0}, {\n type: 'Q',\n x: width,\n y: txt_h,\n x1: width - 32,\n y1: txt_h * 0.5\n}, {type: 'Z'}]);\n\ntxt_h;&quot;}" v:dep="{&quot;size&quot;:[&quot;.txtSize.width&quot;,&quot;.size.height&quot;],&quot;text&quot;:[&quot;.txtSize.height&quot;],&quot;textHeight&quot;:[&quot;.txtSize.height&quot;],&quot;txtSize&quot;:[&quot;.size.height&quot;]}"><path d="M 38 70 C 18 70 0 55 0 35 C 0 15 18 0 38 0 L 150 0 Q 118 35 150 70 Z" fill="#ddccff"/><g transform="translate(38 0)" class="Text.cls"><rect x="0" y="0" width="96" height="70" fill="none" stroke="none"/><text fill="#000" fill-opacity="1" class="" stroke="none" font-size="12px"><tspan x="48" y="56.12"/></text></g></g></symbol></svg>