<svg xmlns="http://www.w3.org/2000/svg" xmlns:v="http://vecta.io" xmlns:xlink="http://www.w3.org/1999/xlink"  viewBox="0 0 64 64" stroke="#000" stroke-linecap="round" stroke-linejoin="round" fill="#fff" fill-rule="evenodd" font-family="Roboto" font-size="14px" text-anchor="middle"><g id="jozcu0dck2" class="Group.cls" transform="translate(1 16.5)" stroke="#838383" v:abox="{&quot;x&quot;:1,&quot;y&quot;:16.5,&quot;width&quot;:61,&quot;height&quot;:30}"><title>Direct Data</title><g class="Prim.cls"><g id="jozcu0dek3" transform="translate(0 0)"><path d="M 4.88 30 C 2.5416666666667 30 0 23.5714 0 15 C 0 6.4286 2.5416666666667 0 4.88 0 L 56.12 0 C 53.68 0 51.24 6.4286 51.24 15 C 51.24 23.5714 53.68 30 56.12 30 Z" fill="#ccffdd" fill-opacity="1" stroke="#838383" stroke-dasharray="none" stroke-linecap="round" stroke-linejoin="round" stroke-opacity="1" stroke-width="1"/><g transform="translate(-0.20333333333333334 0)" class="Text.cls"><rect x="0" y="0" width="38.01987934112549" height="32.142852783203125" fill="none" stroke="none"/><text fill="#000000" fill-opacity="1" stroke="none"/></g></g><g id="jozcu0dek4" transform="translate(51.239999999999995 0)"><path d="M 4.88 30 C 2.44 30 0 23.5714 0 15 C 0 6.4286 2.44 0 4.88 0 C 7.32 0 9.76 6.4286 9.76 15 C 9.76 23.5714 7.32 30 4.88 30 Z" fill="#ccffdd" fill-opacity="1" stroke="#838383" stroke-dasharray="none" stroke-linecap="round" stroke-linejoin="round" stroke-opacity="1" stroke-width="1"/><g transform="translate(0 0)" class="Text.cls"><rect x="0" y="0" width="9.759998448689778" height="34.438777923583984" fill="none" stroke="none"/><text fill="#000000" fill-opacity="1" stroke="none"/></g></g></g><g transform="translate(4.88 0)" class="Text.cls"><rect x="0" y="0" width="46.35999844868977" height="30" fill="none" stroke="none"/><text fill="#000000" fill-opacity="1" stroke="none"/></g></g><symbol id="tv69s1TjEpaiKxPb1C_ltw.sym" overflow="visible" v:tags="flow chart, data, direct data"><title>Direct Data</title><desc>Any data that is directly accessible</desc><g id="jsphq4wseqe" class="Group.cls" transform="translate(0 0)" v:size="151,81,0.5,0.5" v:formula="{&quot;txtMove.x&quot;:&quot;12&quot;,&quot;txtSize.width&quot;:&quot;this.widthU() - (12 * 3)&quot;,&quot;txtSize.height&quot;:&quot;var size = this.text() === '' ? 75 : this.textHeight();\n(size &lt; 75 ? 75 : size) + 5;&quot;,&quot;size.height&quot;:&quot;Math.ceil(this.txtHeightU() / 10) * 10;&quot;}" v:dep="{&quot;size&quot;:[&quot;.txtSize.width&quot;,&quot;jsphq4wseqf.size.width&quot;,&quot;jsphq4wseqg.move.x&quot;,&quot;jsphq4wseqf.size.height&quot;,&quot;jsphq4wseqg.size.height&quot;],&quot;text&quot;:[&quot;.txtSize.height&quot;],&quot;textHeight&quot;:[&quot;.txtSize.height&quot;],&quot;txtSize&quot;:[&quot;.size.height&quot;]}" v:abox="{&quot;x&quot;:0,&quot;y&quot;:0,&quot;width&quot;:150,&quot;height&quot;:80}"><g class="Prim.cls"><g id="jsphq4wseqf" transform="translate(0 0)" class="" v:formula="{&quot;txtMove.x&quot;:&quot;&quot;,&quot;size.width&quot;:&quot;this.parent().widthU() - 12&quot;,&quot;size.height&quot;:&quot;var GAP = 12,\n height = this.parent().heightU(),\n width = this.parent().widthU();\n\nthis.pathList([\n {type: 'M', x: GAP, y: height},\n {type: 'C', x: 0, y: height * 0.5, x1: GAP * 0.5, y1: height, x2: 0, y2: height * (55 / 70)},\n {type: 'C', x: GAP, y: 0, x1: 0, y1: height * (15 / 70), x2: GAP * 0.5, y2: 0},\n {type: 'L', x: width - GAP, y: 0},\n {type: 'C', x: width - (GAP * 2), y: height * 0.5, x1: width - 12 - (GAP * 0.5), y1: 0, x2: width - (GAP * 2), y2: height * (15 / 70)},\n {type: 'C', x: width - GAP, y: height, x1: width - (GAP * 2), y1: height * (55 / 70), x2: width - 12 - (GAP * 0.5), y2: height},\n {type: 'Z'}\n]);\n\nheight;&quot;}"><path d="M 12 80 C 6 80 0 62.8571428571429 0 40 C 0 17.1428571428571 6 0 12 0 L 138 0 C 132 0 126 17.1428571428571 126 40 C 126 62.8571428571429 132 80 138 80 Z" fill="#ccffdd" fill-opacity="1" stroke="#000000" stroke-dasharray="none" stroke-linecap="round" stroke-linejoin="round" stroke-opacity="1" stroke-width="1"/><g transform="translate(-0.5 0)" class="Text.cls"><rect x="0" y="0" width="93.49150848388672" height="85.71427408854166" fill="none" stroke="none"/><text fill="#000000" fill-opacity="1" stroke="none" font-size="12px"/></g></g><g id="jsphq4wseqg" transform="translate(126 0)" class="" v:formula="{&quot;size.width&quot;:&quot;24&quot;,&quot;move.x&quot;:&quot;this.parent().widthU() - this.widthU()&quot;,&quot;size.height&quot;:&quot;this.parent().heightU()&quot;}" v:dep="{&quot;size&quot;:[&quot;.move.x&quot;]}"><path d="M 12 80 C 6 80 0 62.8571428571424 0 39.9999999999997 C 0 17.1428571428573 6 0 12 0 C 18 0 24 17.1428571428573 24 39.9999999999997 C 24 62.8571428571424 18 80 12 80 Z" fill="#ccffdd" fill-opacity="1" stroke="#000000" stroke-dasharray="none" stroke-linecap="round" stroke-linejoin="round" stroke-opacity="1" stroke-width="1"/><g transform="translate(0 0)" class="Text.cls"><rect x="0" y="0" width="23.999996185302734" height="97.95918782552083" fill="none" stroke="none"/><text fill="#000000" fill-opacity="1" stroke="none" font-size="12px"/></g></g></g><g transform="translate(12 0)" class="Text.cls"><rect x="0" y="0" width="114" height="80" fill="none" stroke="none"/><text fill="#000000" fill-opacity="1" stroke="none" class="" font-size="12px"><tspan x="57" y="44.62"/></text></g></g></symbol></svg>