<svg xmlns="http://www.w3.org/2000/svg" xmlns:v="http://vecta.io" xmlns:xlink="http://www.w3.org/1999/xlink"  viewBox="0 0 64 64" stroke="#000" stroke-linecap="round" stroke-linejoin="round" fill="#fff" fill-rule="evenodd" font-family="Roboto" font-size="14px" text-anchor="middle"><g id="jozc9dodkm" class="Group.cls" transform="translate(1.5 14.5)" stroke="#838383" v:abox="{&quot;x&quot;:1.5,&quot;y&quot;:14.5,&quot;width&quot;:60,&quot;height&quot;:34}"><title>Database</title><g class="Prim.cls"><g id="jozc9dofkn" transform="translate(0 4.25)" v:flip="{&quot;flipH&quot;:true}"><path d="M 0 0 C 0 2.125 13.2 4.25 30 4.25 C 46.8 4.25 60 2.125 60 0 L 60 25.5 C 60 27.625 46.8 29.75 30 29.75 C 13.2 29.75 0 27.625 0 25.5 Z" fill="#ccccff" stroke-width="1" stroke="#838383" stroke-opacity="1"/><g transform="translate(0 0)" class="Text.cls"><rect x="0" y="0" width="60" height="4.250000221654773" fill="none" stroke="none"/><text fill="#000000" fill-opacity="1" stroke="none"/></g></g><g id="jozc9dofko" transform="translate(0 0)" v:flip="{&quot;flipH&quot;:true}"><path d="M 59.9999999999999 4.25 C 59.9999999999999 6.375 46.7999999999999 8.5 30 8.5 C 13.1999999999999 8.5 0 6.375 0 4.25 C 0 2.125 13.2 0 30 0 C 46.8 0 60 2.125 60 4.25 Z" fill="#ccccff" stroke-width="1" stroke="#838383" stroke-opacity="1"/><g transform="translate(0 0)" class="Text.cls"><rect x="0" y="0" width="60" height="4.250000221654773" fill="none" stroke="none"/><text fill="#000000" fill-opacity="1" stroke="none"/></g></g><g id="jozc9dofkp" transform="translate(0 6.374999999999999)" v:flip="{&quot;flipH&quot;:true}"><path d="M 1e-13 1e-13 C 0 2.125 13.2 4.25 30 4.25 C 46.8 4.25 60 2.125 60 0" fill="none" stroke="#838383" stroke-opacity="1" stroke-width="1"/><g transform="translate(0 0)" class="Text.cls"><rect x="0" y="0" width="60" height="4.250000221654773" fill="none" stroke="none"/><text fill="#000000" fill-opacity="1" stroke="none"/></g></g><g id="jozc9dofkq" transform="translate(0 8.5)" v:flip="{&quot;flipH&quot;:true}"><path d="M 1e-13 1e-13 C 0 2.125 13.2 4.25 30 4.25 C 46.8 4.25 60 2.125 60 0" fill="none" stroke="#838383" stroke-opacity="1" stroke-width="1"/></g></g><g transform="translate(0 12.749999999999998)" class="Text.cls"><rect x="0" y="0" width="60" height="17.00000088661909" fill="none" stroke="none"/><text fill="#000000" fill-opacity="1" stroke="none"/></g></g><symbol id="qzvf-CLPqJEBJFvcaV2-j9.sym" overflow="visible" v:tags="flow chart, database, db"><title>Database</title><desc>Database with information available for searching &amp; sorting</desc><g id="jspiilkxhn1" class="Group.cls" transform="translate(0 0)" v:size="151,71,0.5,0.5" v:formula="{&quot;txtMove.y&quot;:&quot;30&quot;,&quot;size.height&quot;:&quot;Math.ceil((this.txtHeightU() + 40) / 10) * 10&quot;,&quot;txtSize.height&quot;:&quot;var size = this.text() === '' ? 30 : this.textHeight();\nsize &lt; 30 ? 30 : size;&quot;}" v:dep="{&quot;txtSize&quot;:[&quot;.size.height&quot;,&quot;jspiilkxhn2.size.height&quot;],&quot;text&quot;:[&quot;.txtSize.height&quot;],&quot;textHeight&quot;:[&quot;.txtSize.height&quot;],&quot;size&quot;:[&quot;jspiilkxhn2.size.height&quot;]}" v:abox="{&quot;x&quot;:0,&quot;y&quot;:0,&quot;width&quot;:150,&quot;height&quot;:70}"><g class="Prim.cls"><g id="jspiilkxhn2" transform="translate(0 10)" class="" v:formula="{&quot;move.y&quot;:&quot;10&quot;,&quot;size.height&quot;:&quot;var width = this.parent().widthU(),\n height = Math.ceil(this.parent().txtHeightU() / 10) * 10;\n\nthis.pathList([\n {type: 'M', x: 0, y: 0}, \n {\n type: 'C',\n x: width * 0.5,\n y: 10,\n x1: 0,\n y1: 5,\n x2: width * (33 / 150),\n y2: 10\n}, {type: 'C', x: width, y: 0, x1: width * (117 / 150), y1: 10, x2: width, y2: 5}, {\n type: 'L',\n x: width,\n y: height + 20\n}, {\n type: 'C',\n x: width * 0.5,\n y: height + 20 + 10,\n x1: width,\n y1: height + 20 + 5,\n x2: width * (117 / 150),\n y2: height + 20 + 10\n}, {\n type: 'C',\n x: 0,\n y: height + 20,\n x1: width * (33 / 150),\n y1: height + 20 + 10,\n x2: 0,\n y2: height + 20 + 5\n}, {type: 'Z'}]);\n\nheight + 20 + 10;&quot;}" v:flip="{&quot;flipH&quot;:true}"><path d="M 0 0 C 0 5 33 10 75 10 C 117 10 150 5 150 0 L 150 50 C 150 55 117 60 75 60 C 33 60 0 55 0 50 Z" fill="#ccccff" stroke-width="1"/><g transform="translate(0 0)" class="Text.cls"><rect x="0" y="0" width="150" height="8.75" fill="none" stroke="none"/><text fill="#000000" fill-opacity="1" stroke="none" font-size="12px"/></g></g><g id="jspiilkxhn3" transform="translate(0 0)" class="" v:formula="{&quot;size.height&quot;:&quot;20&quot;}" v:flip="{&quot;flipH&quot;:true}"><path d="M 150 10 C 150 15 117 20 75 20 C 33 20 0 15 0 10 C 0 5 33 0 75 0 C 117 0 150 5 150 10 Z" fill="#ccccff" stroke-width="1"/><g transform="translate(0 0)" class="Text.cls"><rect x="0" y="0" width="150" height="8.75" fill="none" stroke="none"/><text fill="#000000" fill-opacity="1" stroke="none" font-size="12px"/></g></g><g id="jspiilkxhn4" transform="translate(0 15)" class="" v:formula="{&quot;size.height&quot;:&quot;10&quot;,&quot;move.y&quot;:&quot;15&quot;}" v:flip="{&quot;flipH&quot;:true}"><path d="M 1e-13 1e-13 C 0 5 33 10 75 10 C 117 10 150 5 150 0" fill="none" stroke="#000000" stroke-opacity="1" stroke-width="1"/><g transform="translate(0 0)" class="Text.cls"><rect x="0" y="0" width="150" height="8.75" fill="none" stroke="none"/><text fill="#000000" fill-opacity="1" stroke="none" font-size="12px"/></g></g><g id="jspiilkxhn5" transform="translate(0 20)" class="" v:formula="{&quot;size.height&quot;:&quot;10&quot;,&quot;move.y&quot;:&quot;20&quot;}" v:flip="{&quot;flipH&quot;:true}"><path d="M 1e-13 1e-13 C 0 5 33 10 75 10 C 117 10 150 5 150 0" fill="none" stroke="#000000" stroke-opacity="1" stroke-width="1"/><g transform="translate(0 0)" class="Text.cls"><rect x="0" y="0" width="150" height="10" fill="none" stroke="none"/><text font-size="12px" fill="#000000" fill-opacity="1" stroke="none"/></g></g></g><g transform="translate(0 30)" class="Text.cls"><rect x="0" y="0" width="150" height="30" fill="none" stroke="none"/><text fill="#000000" fill-opacity="1" stroke="none" class="" font-size="12px"><tspan x="75" y="19.62"/></text></g></g></symbol></svg>